<control>


default_path=Woodwinds\Bassoon\stac\


<global>




ampeg_attack=0.001


ampeg_release=3


ampeg_dynamic=1




volume=0




<group> //Begin Group 1




lorand=0.0 hirand=0.5


group_label=gr_1






<region>
sample=PSBassoon_A1_v1_rr1.wav
lokey=43
hikey=46
pitch_keycenter=45
lovel=0
hivel=62
volume=12


<region>
sample=PSBassoon_A2_v1_rr1.wav
lokey=56
hikey=58
pitch_keycenter=57
lovel=0
hivel=62
volume=12


<region>
sample=PSBassoon_C2_v1_rr1.wav
lokey=47
hikey=49
pitch_keycenter=48
lovel=0
hivel=62
volume=12


<region>
sample=PSBassoon_C3_v1_rr1.wav
lokey=59
hikey=61
pitch_keycenter=60
lovel=0
hivel=62
volume=12


<region>
sample=PSBassoon_C4_v1_rr1.wav
lokey=70
hikey=72
pitch_keycenter=72
lovel=0
hivel=62
volume=12


<region>
sample=PSBassoon_E2_v1_rr1.wav
lokey=52
hikey=53
pitch_keycenter=52
lovel=0
hivel=62
volume=12


<region>
sample=PSBassoon_E3_v1_rr1.wav
lokey=62
hikey=65
pitch_keycenter=64
lovel=0
hivel=62
volume=12


<region>
sample=PSBassoon_F1_v1_rr1.wav
lokey=40
hikey=42
pitch_keycenter=41
lovel=0
hivel=62
volume=12


<region>
sample=PSBassoon_G2_v1_rr1.wav
lokey=54
hikey=55
pitch_keycenter=55
lovel=0
hivel=62
volume=12


<region>
sample=PSBassoon_G3_v1_rr1.wav
lokey=66
hikey=69
pitch_keycenter=67
lovel=0
hivel=62
volume=12


<region>
sample=PSBassoon_A#0_v2_rr1.wav
lokey=34
hikey=35
pitch_keycenter=34
lovel=0
hivel=127
volume=10


<region>
sample=PSBassoon_A1_v2_rr1.wav
lokey=43
hikey=46
pitch_keycenter=45
lovel=63
hivel=127
volume=0


<region>
sample=PSBassoon_A2_v2_rr1.wav
lokey=56
hikey=58
pitch_keycenter=57
lovel=63
hivel=127
volume=0


<region>
sample=PSBassoon_C2_v2_rr1.wav
lokey=47
hikey=49
pitch_keycenter=48
lovel=63
hivel=127
volume=0


<region>
sample=PSBassoon_C3_v2_rr1.wav
lokey=59
hikey=61
pitch_keycenter=60
lovel=63
hivel=127
volume=0


<region>
sample=PSBassoon_C4_v2_rr1.wav
lokey=70
hikey=72
pitch_keycenter=72
lovel=63
hivel=127
volume=0


<region>
sample=PSBassoon_D#2_v2_rr1.wav
lokey=50
hikey=51
pitch_keycenter=51
lovel=0
hivel=127
volume=10


<region>
sample=PSBassoon_D1_v2_rr1.wav
lokey=36
hikey=39
pitch_keycenter=38
lovel=0
hivel=127
volume=10


<region>
sample=PSBassoon_E2_v2_rr1.wav
lokey=52
hikey=53
pitch_keycenter=52
lovel=63
hivel=127
volume=0


<region>
sample=PSBassoon_E3_v2_rr1.wav
lokey=62
hikey=65
pitch_keycenter=64
lovel=63
hivel=127
volume=0


<region>
sample=PSBassoon_F1_v2_rr1.wav
lokey=40
hikey=42
pitch_keycenter=41
lovel=63
hivel=127
volume=0


<region>
sample=PSBassoon_G2_v2_rr1.wav
lokey=54
hikey=55
pitch_keycenter=55
lovel=63
hivel=127
volume=0


<region>
sample=PSBassoon_G3_v2_rr1.wav
lokey=66
hikey=69
pitch_keycenter=67
lovel=63
hivel=127
volume=0


<group> //Begin Group 2




lorand=0.5 hirand=1.0


group_label=gr_2






<region>
sample=PSBassoon_A1_v1_rr2.wav
lokey=43
hikey=46
pitch_keycenter=45
lovel=0
hivel=62
volume=12


<region>
sample=PSBassoon_A2_v1_rr2.wav
lokey=56
hikey=58
pitch_keycenter=57
lovel=0
hivel=62
volume=12


<region>
sample=PSBassoon_C2_v1_rr2.wav
lokey=47
hikey=49
pitch_keycenter=48
lovel=0
hivel=62
volume=12


<region>
sample=PSBassoon_C3_v1_rr2.wav
lokey=59
hikey=61
pitch_keycenter=60
lovel=0
hivel=62
volume=12


<region>
sample=PSBassoon_C4_v1_rr2.wav
lokey=70
hikey=72
pitch_keycenter=72
lovel=0
hivel=62
volume=12


<region>
sample=PSBassoon_E2_v1_rr2.wav
lokey=52
hikey=53
pitch_keycenter=52
lovel=0
hivel=62
volume=12


<region>
sample=PSBassoon_E3_v1_rr2.wav
lokey=62
hikey=65
pitch_keycenter=64
lovel=0
hivel=62
volume=12


<region>
sample=PSBassoon_F1_v1_rr2.wav
lokey=40
hikey=42
pitch_keycenter=41
lovel=0
hivel=62
volume=12


<region>
sample=PSBassoon_G2_v1_rr2.wav
lokey=54
hikey=55
pitch_keycenter=55
lovel=0
hivel=62
volume=12


<region>
sample=PSBassoon_G3_v1_rr2.wav
lokey=66
hikey=69
pitch_keycenter=67
lovel=0
hivel=62
volume=12


<region>
sample=PSBassoon_A#0_v2_rr2.wav
lokey=34
hikey=35
pitch_keycenter=34
lovel=0
hivel=127
volume=10


<region>
sample=PSBassoon_A1_v2_rr2.wav
lokey=43
hikey=46
pitch_keycenter=45
lovel=63
hivel=127
volume=0


<region>
sample=PSBassoon_A2_v2_rr2.wav
lokey=56
hikey=58
pitch_keycenter=57
lovel=63
hivel=127
volume=0


<region>
sample=PSBassoon_C2_v2_rr2.wav
lokey=47
hikey=49
pitch_keycenter=48
lovel=63
hivel=127
volume=0


<region>
sample=PSBassoon_C3_v2_rr2.wav
lokey=59
hikey=61
pitch_keycenter=60
lovel=63
hivel=127
volume=0


<region>
sample=PSBassoon_C4_v2_rr2.wav
lokey=70
hikey=72
pitch_keycenter=72
lovel=63
hivel=127
volume=0


<region>
sample=PSBassoon_D#2_v2_rr2.wav
lokey=50
hikey=51
pitch_keycenter=51
lovel=0
hivel=127
volume=10


<region>
sample=PSBassoon_D1_v2_rr2.wav
lokey=36
hikey=39
pitch_keycenter=38
lovel=0
hivel=127
volume=10


<region>
sample=PSBassoon_E2_v2_rr2.wav
lokey=52
hikey=53
pitch_keycenter=52
lovel=63
hivel=127
volume=0


<region>
sample=PSBassoon_E3_v2_rr2.wav
lokey=62
hikey=65
pitch_keycenter=64
lovel=63
hivel=127
volume=0


<region>
sample=PSBassoon_F1_v2_rr2.wav
lokey=40
hikey=42
pitch_keycenter=41
lovel=63
hivel=127
volume=0


<region>
sample=PSBassoon_G2_v2_rr2.wav
lokey=54
hikey=55
pitch_keycenter=55
lovel=63
hivel=127
volume=0


<region>
sample=PSBassoon_G3_v2_rr2.wav
lokey=66
hikey=69
pitch_keycenter=67
lovel=63
hivel=127
volume=0


